ISO-10303-21;
HEADER;
FILE_DESCRIPTION (( 'STEP AP214' ),
    '1' );
FILE_NAME ('block.STEP',
    '2026-08-15T10:26:33',
    ( '' ),
    ( '' ),
    'SwSTEP 2.0',
    'SolidWorks 2023',
    '' );
FILE_SCHEMA (( 'AUTOMOTIVE_DESIGN' ));
ENDSEC;

DATA;
#1 = EDGE_LOOP ( 'NONE', ( #128, #366, #406, #86, #206, #77, #465, #209, #243, #542, #494, #824, #537, #729 ) ) ;
#2 = DIRECTION ( 'NONE',  ( 1.000000000000000000, 0.000000000000000000, -0.000000000000000000 ) ) ;
#3 = AXIS2_PLACEMENT_3D ( 'NONE', #83, #425, #565 ) ;
#4 = FACE_OUTER_BOUND ( 'NONE', #432, .T. ) ;
#5 = ORIENTED_EDGE ( 'NONE', *, *, #96, .F. ) ;
#6 = DIRECTION ( 'NONE',  ( -1.000000000000000000, 1.156482317317871478E-16, 0.000000000000000000 ) ) ;
#7 = AXIS2_PLACEMENT_3D ( 'NONE', #363, #584, #647 ) ;
#8 = PLANE ( 'NONE',  #682 ) ;
#9 = EDGE_LOOP ( 'NONE', ( #241, #716, #899, #544 ) ) ;
#10 = DIRECTION ( 'NONE',  ( 0.000000000000000000, 1.000000000000000000, 0.000000000000000000 ) ) ;
#11 = CIRCLE ( 'NONE', #806, 0.5000000000000004441 ) ;
#12 = LINE ( 'NONE', #94, #198 ) ;
#13 = DIRECTION ( 'NONE',  ( -1.000000000000000000, 0.000000000000000000, 0.000000000000000000 ) ) ;
#14 = ORIENTED_EDGE ( 'NONE', *, *, #708, .F. ) ;
#15 = AXIS2_PLACEMENT_3D ( 'NONE', #545, #470, #890 ) ;
#16 = FACE_OUTER_BOUND ( 'NONE', #9, .T. ) ;
#17 = FACE_OUTER_BOUND ( 'NONE', #401, .T. ) ;
#18 = CARTESIAN_POINT ( 'NONE',  ( -23.50000000000000000, -10.00000000000027889, -15.00000000000000000 ) ) ;
#19 = CARTESIAN_POINT ( 'NONE',  ( 6.000000000000000000, -30.00000000000000000, -5.000000000000000000 ) ) ;
#20 = CIRCLE ( 'NONE', #222, 0.5000000000000004441 ) ;
#21 = APPLICATION_CONTEXT ( 'automotive_design' ) ;
#22 = CARTESIAN_POINT ( 'NONE',  ( -9.999999999999998224, -16.99999999999997868, 0.000000000000000000 ) ) ;
#23 = DIRECTION ( 'NONE',  ( 0.000000000000000000, 0.000000000000000000, -1.000000000000000000 ) ) ;
#24 = DIRECTION ( 'NONE',  ( -1.000000000000000000, 0.000000000000000000, -0.000000000000000000 ) ) ;
#25 = EDGE_CURVE ( 'NONE', #753, #93, #476, .T. ) ;
#26 = VECTOR ( 'NONE', #756, 1000.000000000000000 ) ;
#27 = CYLINDRICAL_SURFACE ( 'NONE', #7, 0.5000000000000004441 ) ;
#28 = CARTESIAN_POINT ( 'NONE',  ( 20.00000000000000000, -10.00000000000000000, -7.500000000000000000 ) ) ;
#29 = ORIENTED_EDGE ( 'NONE', *, *, #211, .F. ) ;
#30 = CARTESIAN_POINT ( 'NONE',  ( -13.00000000000000178, -17.00000000000000000, -7.500000000000000000 ) ) ;
#31 = ORIENTED_EDGE ( 'NONE', *, *, #637, .F. ) ;
#32 =( NAMED_UNIT ( * ) SI_UNIT ( $, .STERADIAN. ) SOLID_ANGLE_UNIT ( ) );
#33 = LINE ( 'NONE', #314, #489 ) ;
#34 = MANIFOLD_SOLID_BREP ( 'Fillet1', #153 ) ;
#35 = PLANE ( 'NONE',  #364 ) ;
#36 = ORIENTED_EDGE ( 'NONE', *, *, #719, .F. ) ;
#37 = EDGE_CURVE ( 'NONE', #194, #517, #112, .T. ) ;
#38 = LINE ( 'NONE', #318, #362 ) ;
#39 = AXIS2_PLACEMENT_3D ( 'NONE', #638, #6, #491 ) ;
#40 = VECTOR ( 'NONE', #279, 1000.000000000000000 ) ;
#41 = CARTESIAN_POINT ( 'NONE',  ( 20.00000000000000000, -10.00000000000000000, -15.00000000000000000 ) ) ;
#42 = ORIENTED_EDGE ( 'NONE', *, *, #866, .T. ) ;
#43 = DIRECTION ( 'NONE',  ( 1.000000000000000000, -1.156482317317871478E-16, -0.000000000000000000 ) ) ;
#44 = FACE_OUTER_BOUND ( 'NONE', #775, .T. ) ;
#45 = ORIENTED_EDGE ( 'NONE', *, *, #451, .T. ) ;
#46 = LINE ( 'NONE', #664, #105 ) ;
#47 = CIRCLE ( 'NONE', #468, 6.000000000000000000 ) ;
#48 = DIRECTION ( 'NONE',  ( 0.000000000000000000, 0.000000000000000000, 1.000000000000000000 ) ) ;
#49 = ORIENTED_EDGE ( 'NONE', *, *, #162, .F. ) ;
#50 = ORIENTED_EDGE ( 'NONE', *, *, #385, .T. ) ;
#51 = VECTOR ( 'NONE', #297, 1000.000000000000000 ) ;
#52 = DIRECTION ( 'NONE',  ( 0.000000000000000000, 0.000000000000000000, 1.000000000000000000 ) ) ;
#53 = FILL_AREA_STYLE_COLOUR ( '', #665 ) ;
#54 = CARTESIAN_POINT ( 'NONE',  ( 6.000000000000000000, 0.000000000000000000, 0.000000000000000000 ) ) ;
#55 = AXIS2_PLACEMENT_3D ( 'NONE', #604, #110, #750 ) ;
#56 = ORIENTED_EDGE ( 'NONE', *, *, #783, .F. ) ;
#57 = LINE ( 'NONE', #822, #138 ) ;
#58 = CARTESIAN_POINT ( 'NONE',  ( -30.00000000000000000, 0.000000000000000000, -15.00000000000000000 ) ) ;
#59 = AXIS2_PLACEMENT_3D ( 'NONE', #180, #108, #456 ) ;
#60 = CARTESIAN_POINT ( 'NONE',  ( -13.00000000000002132, -20.00000000000000000, -7.500000000000000000 ) ) ;
#61 = VERTEX_POINT ( 'NONE', #763 ) ;
#62 = DIRECTION ( 'NONE',  ( -0.000000000000000000, -0.000000000000000000, 1.000000000000000000 ) ) ;
#63 = ADVANCED_FACE ( 'NONE', ( #266 ), #692, .T. ) ;
#64 = AXIS2_PLACEMENT_3D ( 'NONE', #58, #646, #782 ) ;
#65 = VERTEX_POINT ( 'NONE', #219 ) ;
#66 = CARTESIAN_POINT ( 'NONE',  ( -23.50000000000000000, -10.00000000000027889, -7.500000000000000000 ) ) ;
#67 = APPLICATION_CONTEXT ( 'automotive_design' ) ;
#68 = CARTESIAN_POINT ( 'NONE',  ( 5.999999999999987566, -30.00000000000000000, 0.000000000000000000 ) ) ;
#69 = VECTOR ( 'NONE', #127, 1000.000000000000000 ) ;
#70 = ORIENTED_EDGE ( 'NONE', *, *, #440, .T. ) ;
#71 = EDGE_CURVE ( 'NONE', #672, #114, #290, .T. ) ;
#72 = LINE ( 'NONE', #625, #627 ) ;
#73 = LINE ( 'NONE', #634, #871 ) ;
#74 = VERTEX_POINT ( 'NONE', #433 ) ;
#75 = FACE_OUTER_BOUND ( 'NONE', #557, .T. ) ;
#76 = DIRECTION ( 'NONE',  ( -1.000000000000000000, 6.938893903907221278E-15, 0.000000000000000000 ) ) ;
#77 = ORIENTED_EDGE ( 'NONE', *, *, #821, .T. ) ;
#78 = LINE ( 'NONE', #569, #299 ) ;
#79 = EDGE_CURVE ( 'NONE', #668, #74, #78, .T. ) ;
#80 = CYLINDRICAL_SURFACE ( 'NONE', #400, 3.499999999999999556 ) ;
#81 = AXIS2_PLACEMENT_3D ( 'NONE', #856, #487, #504 ) ;
#82 = EDGE_CURVE ( 'NONE', #65, #781, #20, .T. ) ;
#83 = CARTESIAN_POINT ( 'NONE',  ( -30.00000000000000355, -30.00000000000000000, -15.00000000000000000 ) ) ;
#84 = ORIENTED_EDGE ( 'NONE', *, *, #281, .F. ) ;
#85 = LINE ( 'NONE', #224, #340 ) ;
#86 = ORIENTED_EDGE ( 'NONE', *, *, #568, .F. ) ;
#87 = CIRCLE ( 'NONE', #737, 3.499999999999999556 ) ;
#88 = DIRECTION ( 'NONE',  ( -0.000000000000000000, 1.000000000000000000, -0.000000000000000000 ) ) ;
#89 = DIRECTION ( 'NONE',  ( 1.000000000000000000, 0.000000000000000000, -0.000000000000000000 ) ) ;
#90 = ORIENTED_EDGE ( 'NONE', *, *, #293, .T. ) ;
#91 = AXIS2_PLACEMENT_3D ( 'NONE', #312, #867, #745 ) ;
#92 = CARTESIAN_POINT ( 'NONE',  ( 6.000000000000000000, -30.00000000000000000, 0.000000000000000000 ) ) ;
#93 = VERTEX_POINT ( 'NONE', #589 ) ;
#94 = CARTESIAN_POINT ( 'NONE',  ( -10.50000000000000000, -17.00000000000000000, -7.500000000000000000 ) ) ;
#95 = PRODUCT_DEFINITION_SHAPE ( 'NONE', 'NONE',  #509 ) ;
#96 = EDGE_CURVE ( 'NONE', #490, #254, #743, .T. ) ;
#97 = EDGE_CURVE ( 'NONE', #200, #635, #85, .T. ) ;
#98 = LINE ( 'NONE', #644, #514 ) ;
#99 = CARTESIAN_POINT ( 'NONE',  ( 13.00000000000000178, -17.00000000000000000, -7.500000000000000000 ) ) ;
#100 = DIRECTION ( 'NONE',  ( 0.000000000000000000, 1.000000000000000000, -0.000000000000000000 ) ) ;
#101 = APPLICATION_PROTOCOL_DEFINITION ( 'draft international standard', 'automotive_design', 1998, #21 ) ;
#102 = PRODUCT_DEFINITION_CONTEXT ( 'detailed design', #67, 'design' ) ;
#103 = LINE ( 'NONE', #869, #532 ) ;
#104 = CARTESIAN_POINT ( 'NONE',  ( 13.00000000000000178, -17.00000000000000000, -7.500000000000000000 ) ) ;
#105 = VECTOR ( 'NONE', #391, 1000.000000000000000 ) ;
#106 = FACE_OUTER_BOUND ( 'NONE', #696, .T. ) ;
#107 = ADVANCED_FACE ( 'NONE', ( #16 ), #575, .F. ) ;
#108 = DIRECTION ( 'NONE',  ( -0.000000000000000000, 0.000000000000000000, 1.000000000000000000 ) ) ;
#109 = ORIENTED_EDGE ( 'NONE', *, *, #82, .T. ) ;
#110 = DIRECTION ( 'NONE',  ( 0.000000000000000000, -1.000000000000000000, 0.000000000000000000 ) ) ;
#111 = PRESENTATION_LAYER_ASSIGNMENT (  '', '', ( #496 ) ) ;
#112 = CIRCLE ( 'NONE', #382, 2.999999999999999112 ) ;
#113 = DIRECTION ( 'NONE',  ( -1.000000000000000000, 0.000000000000000000, 0.000000000000000000 ) ) ;
#114 = VERTEX_POINT ( 'NONE', #169 ) ;
#115 = EDGE_CURVE ( 'NONE', #348, #540, #651, .T. ) ;
#116 = CARTESIAN_POINT ( 'NONE',  ( -30.00000000000000355, -19.50000000000000000, -6.999999999999999112 ) ) ;
#117 = TOROIDAL_SURFACE ( 'NONE', #305, 2.500000000000000000, 0.5000000000000000000 ) ;
#118 = CARTESIAN_POINT ( 'NONE',  ( 13.00000000000000178, -17.00000000000000000, -7.500000000000000000 ) ) ;
#119 = ORIENTED_EDGE ( 'NONE', *, *, #666, .F. ) ;
#120 = CARTESIAN_POINT ( 'NONE',  ( -13.00000000000000178, -17.00000000000000000, -7.500000000000000000 ) ) ;
#121 = LINE ( 'NONE', #393, #175 ) ;
#122 = EDGE_LOOP ( 'NONE', ( #50, #816 ) ) ;
#123 = EDGE_CURVE ( 'NONE', #437, #320, #700, .T. ) ;
#124 = EDGE_CURVE ( 'NONE', #200, #513, #103, .T. ) ;
#125 = EDGE_LOOP ( 'NONE', ( #197, #354, #683, #546 ) ) ;
#126 = AXIS2_PLACEMENT_3D ( 'NONE', #499, #13, #862 ) ;
#127 = DIRECTION ( 'NONE',  ( -1.156482317317871478E-16, 1.000000000000000000, -0.000000000000000000 ) ) ;
#128 = ORIENTED_EDGE ( 'NONE', *, *, #414, .F. ) ;
#129 = LINE ( 'NONE', #54, #550 ) ;
#130 = VERTEX_POINT ( 'NONE', #240 ) ;
#131 = VECTOR ( 'NONE', #776, 1000.000000000000000 ) ;
#132 = CARTESIAN_POINT ( 'NONE',  ( 23.50000000000000000, -10.00000000000000000, -7.500000000000000000 ) ) ;
#133 = DIRECTION ( 'NONE',  ( 0.000000000000000000, 0.000000000000000000, 1.000000000000000000 ) ) ;
#134 = AXIS2_PLACEMENT_3D ( 'NONE', #116, #43, #381 ) ;
#135 = ORIENTED_EDGE ( 'NONE', *, *, #522, .T. ) ;
#136 = EDGE_CURVE ( 'NONE', #513, #534, #787, .T. ) ;
#137 = SURFACE_STYLE_USAGE ( .BOTH. , #141 ) ;
#138 = VECTOR ( 'NONE', #829, 1000.000000000000000 ) ;
#139 = DIRECTION ( 'NONE',  ( -1.000000000000000000, 0.000000000000000000, 0.000000000000000000 ) ) ;
#140 = ORIENTED_EDGE ( 'NONE', *, *, #698, .F. ) ;
#141 = SURFACE_SIDE_STYLE ('',( #768 ) ) ;
#142 = DIRECTION ( 'NONE',  ( 1.000000000000000000, 0.000000000000000000, 0.000000000000000000 ) ) ;
#143 = VECTOR ( 'NONE', #728, 1000.000000000000000 ) ;
#144 = ADVANCED_FACE ( 'NONE', ( #236 ), #501, .F. ) ;
#145 = ORIENTED_EDGE ( 'NONE', *, *, #774, .F. ) ;
#146 = CARTESIAN_POINT ( 'NONE',  ( 30.00000000000000355, -30.00000000000000000, -15.00000000000000000 ) ) ;
#147 = FACE_OUTER_BOUND ( 'NONE', #907, .T. ) ;
#148 = ORIENTED_EDGE ( 'NONE', *, *, #708, .T. ) ;
#149 = LINE ( 'NONE', #420, #428 ) ;
#150 = DIRECTION ( 'NONE',  ( 1.000000000000000000, 0.000000000000000000, 0.000000000000000000 ) ) ;
#151 = ORIENTED_EDGE ( 'NONE', *, *, #764, .T. ) ;
#152 = LINE ( 'NONE', #424, #473 ) ;
#153 = CLOSED_SHELL ( 'NONE', ( #791, #302, #311, #707, #773, #63, #747, #244, #847, #376, #375, #392, #621, #196, #885, #582, #257, #581, #800, #144, #321, #837, #736, #481, #107, #356, #508, #274 ) ) ;
#154 = DIRECTION ( 'NONE',  ( 1.000000000000000000, 0.000000000000000000, 0.000000000000000000 ) ) ;
#155 = ORIENTED_EDGE ( 'NONE', *, *, #539, .T. ) ;
#156 = DIRECTION ( 'NONE',  ( -0.000000000000000000, -0.000000000000000000, 1.000000000000000000 ) ) ;
#157 = LINE ( 'NONE', #643, #51 ) ;
#158 = LINE ( 'NONE', #488, #239 ) ;
#159 = VECTOR ( 'NONE', #345, 1000.000000000000000 ) ;
#160 = ORIENTED_EDGE ( 'NONE', *, *, #347, .T. ) ;
#161 = DIRECTION ( 'NONE',  ( -0.000000000000000000, 0.000000000000000000, 1.000000000000000000 ) ) ;
#162 = EDGE_CURVE ( 'NONE', #576, #688, #723, .T. ) ;
#163 = EDGE_CURVE ( 'NONE', #891, #408, #771, .T. ) ;
#164 = LINE ( 'NONE', #852, #317 ) ;
#165 = CARTESIAN_POINT ( 'NONE',  ( 0.000000000000000000, 0.000000000000000000, -5.000000000000000000 ) ) ;
#166 = CARTESIAN_POINT ( 'NONE',  ( 10.00000000000000000, 0.000000000000000000, -7.500000000000000000 ) ) ;
#167 = DIRECTION ( 'NONE',  ( 1.000000000000000000, 0.000000000000000000, 0.000000000000000000 ) ) ;
#168 = AXIS2_PLACEMENT_3D ( 'NONE', #711, #76, #655 ) ;
#169 = CARTESIAN_POINT ( 'NONE',  ( 10.00000000000000888, 0.000000000000000000, 0.000000000000000000 ) ) ;
#170 = CARTESIAN_POINT ( 'NONE',  ( -6.000000000000000000, 0.000000000000000000, 0.000000000000000000 ) ) ;
#171 = CARTESIAN_POINT ( 'NONE',  ( -30.00000000000000000, -19.50000000000000000, -7.500000000000000000 ) ) ;
#172 = DIRECTION ( 'NONE',  ( 0.000000000000000000, 0.000000000000000000, 1.000000000000000000 ) ) ;
#173 = ORIENTED_EDGE ( 'NONE', *, *, #669, .T. ) ;
#174 = FACE_OUTER_BOUND ( 'NONE', #462, .T. ) ;
#175 = VECTOR ( 'NONE', #48, 1000.000000000000000 ) ;
#176 = DIRECTION ( 'NONE',  ( 0.000000000000000000, 0.000000000000000000, 1.000000000000000000 ) ) ;
#177 = ORIENTED_EDGE ( 'NONE', *, *, #458, .T. ) ;
#178 = CYLINDRICAL_SURFACE ( 'NONE', #879, 2.999999999999999112 ) ;
#179 = AXIS2_PLACEMENT_3D ( 'NONE', #660, #858, #360 ) ;
#180 = CARTESIAN_POINT ( 'NONE',  ( -30.00000000000000355, -30.00000000000000000, 0.000000000000000000 ) ) ;
#181 = VERTEX_POINT ( 'NONE', #171 ) ;
#182 = DIRECTION ( 'NONE',  ( -0.000000000000000000, 0.000000000000000000, 1.000000000000000000 ) ) ;
#183 = AXIS2_PLACEMENT_3D ( 'NONE', #618, #262, #189 ) ;
#184 = DIRECTION ( 'NONE',  ( -1.000000000000000000, 0.000000000000000000, 0.000000000000000000 ) ) ;
#185 = ORIENTED_EDGE ( 'NONE', *, *, #689, .F. ) ;
#186 = EDGE_CURVE ( 'NONE', #668, #513, #580, .T. ) ;
#187 = PRODUCT_RELATED_PRODUCT_CATEGORY ( 'part', '', ( #573 ) ) ;
#188 = ORIENTED_EDGE ( 'NONE', *, *, #648, .T. ) ;
#189 = DIRECTION ( 'NONE',  ( 1.000000000000000000, 0.000000000000000000, 0.000000000000000000 ) ) ;
#190 = ORIENTED_EDGE ( 'NONE', *, *, #124, .T. ) ;
#191 = EDGE_LOOP ( 'NONE', ( #310, #703, #410, #56 ) ) ;
#192 = AXIS2_PLACEMENT_3D ( 'NONE', #304, #721, #154 ) ;
#193 = CARTESIAN_POINT ( 'NONE',  ( 13.00000000000002132, -20.00000000000000000, 0.000000000000000000 ) ) ;
#194 = VERTEX_POINT ( 'NONE', #793 ) ;
#195 = DIRECTION ( 'NONE',  ( 0.000000000000000000, 0.000000000000000000, 1.000000000000000000 ) ) ;
#196 = ADVANCED_FACE ( 'NONE', ( #355 ), #436, .F. ) ;
#197 = ORIENTED_EDGE ( 'NONE', *, *, #678, .F. ) ;
#198 = VECTOR ( 'NONE', #100, 1000.000000000000000 ) ;
#199 = FACE_OUTER_BOUND ( 'NONE', #685, .T. ) ;
#200 = VERTEX_POINT ( 'NONE', #586 ) ;
#201 = LINE ( 'NONE', #633, #904 ) ;
#202 = ORIENTED_EDGE ( 'NONE', *, *, #774, .T. ) ;
#203 = ORIENTED_EDGE ( 'NONE', *, *, #281, .T. ) ;
#204 = VECTOR ( 'NONE', #388, 1000.000000000000000 ) ;
#205 = DIRECTION ( 'NONE',  ( 0.000000000000000000, 0.000000000000000000, -1.000000000000000000 ) ) ;
#206 = ORIENTED_EDGE ( 'NONE', *, *, #71, .F. ) ;
#207 = DIRECTION ( 'NONE',  ( -1.000000000000000000, 0.000000000000000000, 0.000000000000000000 ) ) ;
#208 = LINE ( 'NONE', #832, #749 ) ;
#209 = ORIENTED_EDGE ( 'NONE', *, *, #648, .F. ) ;
#210 = LINE ( 'NONE', #373, #561 ) ;
#211 = EDGE_CURVE ( 'NONE', #652, #746, #11, .T. ) ;
#212 = PLANE ( 'NONE',  #443 ) ;
#213 = ORIENTED_EDGE ( 'NONE', *, *, #628, .T. ) ;
#214 = CIRCLE ( 'NONE', #566, 2.999999999999999112 ) ;
#215 = DIRECTION ( 'NONE',  ( -0.000000000000000000, 1.000000000000000000, -0.000000000000000000 ) ) ;
#216 = AXIS2_PLACEMENT_3D ( 'NONE', #680, #447, #675 ) ;
#217 = CARTESIAN_POINT ( 'NONE',  ( 13.00000000000001954, -19.50000000000000000, -7.500000000000000000 ) ) ;
#218 = ORIENTED_EDGE ( 'NONE', *, *, #480, .F. ) ;
#219 = CARTESIAN_POINT ( 'NONE',  ( 13.00000000000002309, -20.00000000000000000, -6.999999999999999112 ) ) ;
#220 = LINE ( 'NONE', #577, #875 ) ;
#221 = PLANE ( 'NONE',  #3 ) ;
#222 = AXIS2_PLACEMENT_3D ( 'NONE', #427, #309, #717 ) ;
#223 = ORIENTED_EDGE ( 'NONE', *, *, #522, .F. ) ;
#224 = CARTESIAN_POINT ( 'NONE',  ( -30.00000000000000355, -30.00000000000000000, -15.00000000000000000 ) ) ;
#225 = ORIENTED_EDGE ( 'NONE', *, *, #689, .T. ) ;
#226 = EDGE_CURVE ( 'NONE', #130, #335, #46, .T. ) ;
#227 = EDGE_CURVE ( 'NONE', #336, #320, #246, .T. ) ;
#228 = CARTESIAN_POINT ( 'NONE',  ( -30.00000000000000000, 0.000000000000000000, -15.00000000000000000 ) ) ;
#229 = FACE_BOUND ( 'NONE', #834, .T. ) ;
#230 = VECTOR ( 'NONE', #195, 1000.000000000000000 ) ;
#231 = CARTESIAN_POINT ( 'NONE',  ( -30.00000000000000000, 0.000000000000000000, 0.000000000000000000 ) ) ;
#232 = EDGE_LOOP ( 'NONE', ( #526, #695, #280, #70, #202 ) ) ;
#233 = DIRECTION ( 'NONE',  ( -0.000000000000000000, 1.000000000000000000, -0.000000000000000000 ) ) ;
#234 = DIRECTION ( 'NONE',  ( 0.000000000000000000, 0.000000000000000000, 1.000000000000000000 ) ) ;
#235 = UNCERTAINTY_MEASURE_WITH_UNIT (LENGTH_MEASURE( 1.000000000000000082E-05 ), #826, 'distance_accuracy_value', 'NONE');
#236 = FACE_OUTER_BOUND ( 'NONE', #699, .T. ) ;
#237 = ORIENTED_EDGE ( 'NONE', *, *, #423, .F. ) ;
#238 = LINE ( 'NONE', #515, #694 ) ;
#239 = VECTOR ( 'NONE', #431, 1000.000000000000000 ) ;
#240 = CARTESIAN_POINT ( 'NONE',  ( -10.50000000000000000, 0.000000000000000000, -7.500000000000000000 ) ) ;
#241 = ORIENTED_EDGE ( 'NONE', *, *, #96, .T. ) ;
#242 = CARTESIAN_POINT ( 'NONE',  ( 13.00000000000000178, -17.00000000000000000, -6.999999999999999112 ) ) ;
#243 = ORIENTED_EDGE ( 'NONE', *, *, #548, .T. ) ;
#244 = ADVANCED_FACE ( 'NONE', ( #735 ), #744, .T. ) ;
#245 = VECTOR ( 'NONE', #215, 1000.000000000000000 ) ;
#246 = LINE ( 'NONE', #523, #524 ) ;
#247 = EDGE_CURVE ( 'NONE', #507, #833, #33, .T. ) ;
#248 = DIRECTION ( 'NONE',  ( 1.000000000000000000, 0.000000000000000000, 0.000000000000000000 ) ) ;
#249 = EDGE_LOOP ( 'NONE', ( #453, #794, #873, #841 ) ) ;
#250 = AXIS2_PLACEMENT_3D ( 'NONE', #679, #326, #593 ) ;
#251 = CARTESIAN_POINT ( 'NONE',  ( -30.00000000000000355, -30.00000000000000000, 0.000000000000000000 ) ) ;
#252 = VECTOR ( 'NONE', #758, 1000.000000000000000 ) ;
#253 = DIRECTION ( 'NONE',  ( 0.000000000000000000, 0.000000000000000000, 1.000000000000000000 ) ) ;
#254 = VERTEX_POINT ( 'NONE', #674 ) ;
#255 = CARTESIAN_POINT ( 'NONE',  ( -6.000000000000000000, 0.000000000000000000, 0.000000000000000000 ) ) ;
#256 = EDGE_CURVE ( 'NONE', #619, #534, #38, .T. ) ;
#257 = ADVANCED_FACE ( 'NONE', ( #106 ), #178, .F. ) ;
#258 = VECTOR ( 'NONE', #368, 1000.000000000000000 ) ;
#259 = FACE_BOUND ( 'NONE', #767, .T. ) ;
#260 = ORIENTED_EDGE ( 'NONE', *, *, #115, .T. ) ;
#261 = DIRECTION ( 'NONE',  ( -1.000000000000000000, -0.000000000000000000, 0.000000000000000000 ) ) ;
#262 = DIRECTION ( 'NONE',  ( 0.000000000000000000, 0.000000000000000000, 1.000000000000000000 ) ) ;
#263 = ORIENTED_EDGE ( 'NONE', *, *, #814, .T. ) ;
#264 = ORIENTED_EDGE ( 'NONE', *, *, #637, .T. ) ;
#265 = LINE ( 'NONE', #193, #252 ) ;
#266 = FACE_OUTER_BOUND ( 'NONE', #1, .T. ) ;
#267 = LINE ( 'NONE', #861, #802 ) ;
#268 = EDGE_CURVE ( 'NONE', #419, #181, #613, .T. ) ;
#269 = ORIENTED_EDGE ( 'NONE', *, *, #669, .F. ) ;
#270 = CARTESIAN_POINT ( 'NONE',  ( 30.00000000000000355, -30.00000000000000000, 0.000000000000000000 ) ) ;
#271 = ORIENTED_EDGE ( 'NONE', *, *, #337, .F. ) ;
#272 = CARTESIAN_POINT ( 'NONE',  ( 13.00000000000002309, -20.00000000000000000, 0.000000000000000000 ) ) ;
#273 = ORIENTED_EDGE ( 'NONE', *, *, #555, .T. ) ;
#274 = ADVANCED_FACE ( 'NONE', ( #535 ), #323, .F. ) ;
#275 = AXIS2_PLACEMENT_3D ( 'NONE', #417, #616, #399 ) ;
#276 = DIRECTION ( 'NONE',  ( 0.000000000000000000, 1.000000000000000000, 0.000000000000000000 ) ) ;
#277 = DIRECTION ( 'NONE',  ( -1.000000000000000000, -0.000000000000000000, -0.000000000000000000 ) ) ;
#278 = ORIENTED_EDGE ( 'NONE', *, *, #82, .F. ) ;
#279 = DIRECTION ( 'NONE',  ( -1.156482317317871478E-16, -1.000000000000000000, 0.000000000000000000 ) ) ;
#280 = ORIENTED_EDGE ( 'NONE', *, *, #226, .T. ) ;
#281 = EDGE_CURVE ( 'NONE', #746, #65, #874, .T. ) ;
#282 = AXIS2_PLACEMENT_3D ( 'NONE', #165, #435, #706 ) ;
#283 = DIRECTION ( 'NONE',  ( 0.000000000000000000, 0.000000000000000000, 1.000000000000000000 ) ) ;
#284 = DIRECTION ( 'NONE',  ( -0.000000000000000000, -1.000000000000000000, -0.000000000000000000 ) ) ;
#285 = VERTEX_POINT ( 'NONE', #884 ) ;
#286 = CIRCLE ( 'NONE', #168, 0.5000000000000004441 ) ;
#287 = LINE ( 'NONE', #430, #518 ) ;
#288 = DIRECTION ( 'NONE',  ( -0.000000000000000000, -0.000000000000000000, -1.000000000000000000 ) ) ;
#289 = VERTEX_POINT ( 'NONE', #255 ) ;
#290 = LINE ( 'NONE', #166, #624 ) ;
#291 = CARTESIAN_POINT ( 'NONE',  ( 10.00000000000000000, 0.000000000000000000, -6.999999999999999112 ) ) ;
#292 = AXIS2_PLACEMENT_3D ( 'NONE', #242, #315, #876 ) ;
#293 = EDGE_CURVE ( 'NONE', #74, #753, #214, .T. ) ;
#294 = DIRECTION ( 'NONE',  ( 0.000000000000000000, 0.000000000000000000, 1.000000000000000000 ) ) ;
#295 = ORIENTED_EDGE ( 'NONE', *, *, #414, .T. ) ;
#296 = DIRECTION ( 'NONE',  ( 0.000000000000000000, 0.000000000000000000, 1.000000000000000000 ) ) ;
#297 = DIRECTION ( 'NONE',  ( -0.000000000000000000, -0.000000000000000000, 1.000000000000000000 ) ) ;
#298 = DIRECTION ( 'NONE',  ( 1.000000000000000000, 0.000000000000000000, 0.000000000000000000 ) ) ;
#299 = VECTOR ( 'NONE', #495, 1000.000000000000000 ) ;
#300 = CARTESIAN_POINT ( 'NONE',  ( 10.50000000000000000, -16.99999999999998224, -6.999999999999999112 ) ) ;
#301 = EDGE_LOOP ( 'NONE', ( #709, #14, #836, #260 ) ) ;
#302 = ADVANCED_FACE ( 'NONE', ( #174 ), #450, .F. ) ;
#303 = FACE_OUTER_BOUND ( 'NONE', #415, .T. ) ;
#304 = CARTESIAN_POINT ( 'NONE',  ( -20.00000000000000000, -10.00000000000027889, -15.00000000000000000 ) ) ;
#305 = AXIS2_PLACEMENT_3D ( 'NONE', #464, #839, #139 ) ;
#306 = DIRECTION ( 'NONE',  ( 1.000000000000000000, 0.000000000000000000, 0.000000000000000000 ) ) ;
#307 = ORIENTED_EDGE ( 'NONE', *, *, #906, .F. ) ;
#308 = CARTESIAN_POINT ( 'NONE',  ( 30.00000000000000000, -20.00000000000000000, -6.999999999999999112 ) ) ;
#309 = DIRECTION ( 'NONE',  ( 1.000000000000000000, 0.000000000000000000, -6.938893903907221278E-15 ) ) ;
#310 = ORIENTED_EDGE ( 'NONE', *, *, #539, .F. ) ;
#311 = ADVANCED_FACE ( 'NONE', ( #378 ), #880, .T. ) ;
#312 = CARTESIAN_POINT ( 'NONE',  ( -20.00000000000000000, -10.00000000000027889, -7.500000000000000000 ) ) ;
#313 = ORIENTED_EDGE ( 'NONE', *, *, #813, .F. ) ;
#314 = CARTESIAN_POINT ( 'NONE',  ( 30.00000000000000000, 0.000000000000000000, 0.000000000000000000 ) ) ;
#315 = DIRECTION ( 'NONE',  ( -0.000000000000000000, -0.000000000000000000, -1.000000000000000000 ) ) ;
#316 = VERTEX_POINT ( 'NONE', #66 ) ;
#317 = VECTOR ( 'NONE', #233, 1000.000000000000000 ) ;
#318 = CARTESIAN_POINT ( 'NONE',  ( -6.000000000000000000, -30.00000000000000000, 0.000000000000000000 ) ) ;
#319 = CARTESIAN_POINT ( 'NONE',  ( -10.00000000000000000, -16.99999999999997868, -6.999999999999999112 ) ) ;
#320 = VERTEX_POINT ( 'NONE', #525 ) ;
#321 = ADVANCED_FACE ( 'NONE', ( #671 ), #818, .F. ) ;
#322 = EDGE_CURVE ( 'NONE', #285, #336, #87, .T. ) ;
#323 = CYLINDRICAL_SURFACE ( 'NONE', #250, 0.5000000000000004441 ) ;
#324 = DIRECTION ( 'NONE',  ( -0.000000000000000000, 1.000000000000000000, -0.000000000000000000 ) ) ;
#325 = ORIENTED_EDGE ( 'NONE', *, *, #601, .T. ) ;
#326 = DIRECTION ( 'NONE',  ( 0.000000000000000000, 1.000000000000000000, 0.000000000000000000 ) ) ;
#327 = AXIS2_PLACEMENT_3D ( 'NONE', #888, #602, #597 ) ;
#328 = CARTESIAN_POINT ( 'NONE',  ( 10.50000000000000000, -16.99999999999997868, -7.500000000000000000 ) ) ;
#329 = ORIENTED_EDGE ( 'NONE', *, *, #136, .F. ) ;
#330 = ORIENTED_EDGE ( 'NONE', *, *, #163, .T. ) ;
#331 = DIRECTION ( 'NONE',  ( 1.000000000000000000, 0.000000000000000000, 0.000000000000000000 ) ) ;
#332 = PRESENTATION_STYLE_ASSIGNMENT (( #137 ) ) ;
#333 = LINE ( 'NONE', #552, #26 ) ;
#334 = AXIS2_PLACEMENT_3D ( 'NONE', #459, #817, #670 ) ;
#335 = VERTEX_POINT ( 'NONE', #667 ) ;
#336 = VERTEX_POINT ( 'NONE', #383 ) ;
#337 = EDGE_CURVE ( 'NONE', #254, #611, #850, .T. ) ;
#338 = DIRECTION ( 'NONE',  ( 0.000000000000000000, -1.000000000000000000, -0.000000000000000000 ) ) ;
#339 = VERTEX_POINT ( 'NONE', #741 ) ;
#340 = VECTOR ( 'NONE', #863, 1000.000000000000000 ) ;
#341 = CARTESIAN_POINT ( 'NONE',  ( -6.000000000000000000, -30.00000000000000000, -5.000000000000000888 ) ) ;
#342 = ORIENTED_EDGE ( 'NONE', *, *, #493, .F. ) ;
#343 = VECTOR ( 'NONE', #62, 1000.000000000000000 ) ;
#344 = ORIENTED_EDGE ( 'NONE', *, *, #337, .T. ) ;
#345 = DIRECTION ( 'NONE',  ( 0.000000000000000000, 0.000000000000000000, 1.000000000000000000 ) ) ;
#346 = EDGE_CURVE ( 'NONE', #617, #254, #377, .T. ) ;
#347 = EDGE_CURVE ( 'NONE', #408, #781, #881, .T. ) ;
#348 = VERTEX_POINT ( 'NONE', #595 ) ;
#349 = FACE_OUTER_BOUND ( 'NONE', #663, .T. ) ;
#350 = DIRECTION ( 'NONE',  ( 0.000000000000000000, 0.000000000000000000, 1.000000000000000000 ) ) ;
#351 = EDGE_LOOP ( 'NONE', ( #600, #329, #661, #877, #135, #394, #469, #263 ) ) ;
#352 = PLANE ( 'NONE',  #39 ) ;
#353 = CARTESIAN_POINT ( 'NONE',  ( 10.50000000000000000, 0.000000000000000000, -6.999999999999999112 ) ) ;
#354 = ORIENTED_EDGE ( 'NONE', *, *, #346, .T. ) ;
#355 = FACE_OUTER_BOUND ( 'NONE', #551, .T. ) ;
#356 = ADVANCED_FACE ( 'NONE', ( #662 ), #461, .F. ) ;
#357 = CARTESIAN_POINT ( 'NONE',  ( -20.00000000000000000, -10.00000000000027889, -15.00000000000000000 ) ) ;
#358 = PLANE ( 'NONE',  #126 ) ;
#359 = ORIENTED_EDGE ( 'NONE', *, *, #211, .T. ) ;
#360 = DIRECTION ( 'NONE',  ( 0.000000000000000000, 0.000000000000000000, 1.000000000000000000 ) ) ;
#361 = ORIENTED_EDGE ( 'NONE', *, *, #813, .T. ) ;
#362 = VECTOR ( 'NONE', #454, 1000.000000000000000 ) ;
#363 = CARTESIAN_POINT ( 'NONE',  ( -13.00000000000000178, -19.50000000000000000, -6.999999999999999112 ) ) ;
#364 = AXIS2_PLACEMENT_3D ( 'NONE', #118, #533, #751 ) ;
#365 = CARTESIAN_POINT ( 'NONE',  ( -20.00000000000000000, -10.00000000000027889, -7.500000000000000000 ) ) ;
#366 = ORIENTED_EDGE ( 'NONE', *, *, #865, .F. ) ;
#367 = EDGE_CURVE ( 'NONE', #426, #490, #570, .T. ) ;
#368 = DIRECTION ( 'NONE',  ( -0.000000000000000000, 1.000000000000000000, -0.000000000000000000 ) ) ;
#369 = FACE_OUTER_BOUND ( 'NONE', #191, .T. ) ;
#370 = DIRECTION ( 'NONE',  ( -0.000000000000000000, -0.000000000000000000, 1.000000000000000000 ) ) ;
#371 = AXIS2_PLACEMENT_3D ( 'NONE', #300, #374, #801 ) ;
#372 = DIRECTION ( 'NONE',  ( -0.000000000000000000, -0.000000000000000000, 1.000000000000000000 ) ) ;
#373 = CARTESIAN_POINT ( 'NONE',  ( -13.00000000000002132, -20.00000000000000000, -6.999999999999999112 ) ) ;
#374 = DIRECTION ( 'NONE',  ( -6.938893903907221278E-15, -1.000000000000000000, -6.938893903907221278E-15 ) ) ;
#375 = ADVANCED_FACE ( 'NONE', ( #519 ), #815, .F. ) ;
#376 = ADVANCED_FACE ( 'NONE', ( #44 ), #605, .T. ) ;
#377 = LINE ( 'NONE', #319, #204 ) ;
#378 = FACE_OUTER_BOUND ( 'NONE', #870, .T. ) ;
#379 = CARTESIAN_POINT ( 'NONE',  ( 0.000000000000000000, -30.00000000000000000, -5.000000000000000000 ) ) ;
#380 = ORIENTED_EDGE ( 'NONE', *, *, #568, .T. ) ;
#381 = DIRECTION ( 'NONE',  ( 0.000000000000000000, -1.000000000000000000, 0.000000000000000000 ) ) ;
#382 = AXIS2_PLACEMENT_3D ( 'NONE', #908, #554, #207 ) ;
#383 = CARTESIAN_POINT ( 'NONE',  ( 16.50000000000000000, -10.00000000000000000, -15.00000000000000000 ) ) ;
#384 = ORIENTED_EDGE ( 'NONE', *, *, #601, .F. ) ;
#385 = EDGE_CURVE ( 'NONE', #804, #316, #766, .T. ) ;
#386 = DIRECTION ( 'NONE',  ( 0.000000000000000000, 0.000000000000000000, 1.000000000000000000 ) ) ;
#387 = AXIS2_PLACEMENT_3D ( 'NONE', #769, #283, #142 ) ;
#388 = DIRECTION ( 'NONE',  ( -0.000000000000000000, -1.000000000000000000, -0.000000000000000000 ) ) ;
#389 = ORIENTED_EDGE ( 'NONE', *, *, #608, .T. ) ;
#390 = PRODUCT_CONTEXT ( 'NONE', #21, 'mechanical' ) ;
#391 = DIRECTION ( 'NONE',  ( -1.000000000000000000, 0.000000000000000000, 0.000000000000000000 ) ) ;
#392 = ADVANCED_FACE ( 'NONE', ( #591, #259 ), #35, .F. ) ;
#393 = CARTESIAN_POINT ( 'NONE',  ( -16.50000000000000000, -10.00000000000027889, -15.00000000000000000 ) ) ;
#394 = ORIENTED_EDGE ( 'NONE', *, *, #628, .F. ) ;
#395 = CIRCLE ( 'NONE', #282, 6.000000000000000000 ) ;
#396 = VERTEX_POINT ( 'NONE', #738 ) ;
#397 = LINE ( 'NONE', #475, #583 ) ;
#398 = ORIENTED_EDGE ( 'NONE', *, *, #548, .F. ) ;
#399 = DIRECTION ( 'NONE',  ( -1.000000000000000000, 0.000000000000000000, 0.000000000000000000 ) ) ;
#400 = AXIS2_PLACEMENT_3D ( 'NONE', #357, #731, #167 ) ;
#401 = EDGE_LOOP ( 'NONE', ( #892, #359, #632, #770, #223, #733, #188 ) ) ;
#402 = DIRECTION ( 'NONE',  ( 0.000000000000000000, 0.000000000000000000, 1.000000000000000000 ) ) ;
#403 = EDGE_CURVE ( 'NONE', #339, #804, #121, .T. ) ;
#404 = CARTESIAN_POINT ( 'NONE',  ( 10.00000000000000000, 0.000000000000000000, -7.500000000000000000 ) ) ;
#405 = VECTOR ( 'NONE', #506, 1000.000000000000000 ) ;
#406 = ORIENTED_EDGE ( 'NONE', *, *, #538, .F. ) ;
#407 = CIRCLE ( 'NONE', #292, 2.999999999999999112 ) ;
#408 = VERTEX_POINT ( 'NONE', #328 ) ;
#409 = CARTESIAN_POINT ( 'NONE',  ( -6.000000000000000000, -30.00000000000000000, 0.000000000000000000 ) ) ;
#410 = ORIENTED_EDGE ( 'NONE', *, *, #403, .T. ) ;
#411 = AXIS2_PLACEMENT_3D ( 'NONE', #28, #296, #442 ) ;
#412 = CARTESIAN_POINT ( 'NONE',  ( 30.00000000000000355, -30.00000000000000000, -15.00000000000000000 ) ) ;
#413 = EDGE_CURVE ( 'NONE', #289, #93, #238, .T. ) ;
#414 = EDGE_CURVE ( 'NONE', #883, #289, #799, .T. ) ;
#415 = EDGE_LOOP ( 'NONE', ( #701, #36, #313, #145 ) ) ;
#416 = AXIS2_PLACEMENT_3D ( 'NONE', #697, #903, #687 ) ;
#417 = CARTESIAN_POINT ( 'NONE',  ( 20.00000000000000000, -10.00000000000000000, -7.500000000000000000 ) ) ;
#418 = CARTESIAN_POINT ( 'NONE',  ( -6.000000000000000000, 0.000000000000000000, -5.000000000000000888 ) ) ;
#419 = VERTEX_POINT ( 'NONE', #734 ) ;
#420 = CARTESIAN_POINT ( 'NONE',  ( 30.00000000000000000, -20.00000000000000000, -7.500000000000000000 ) ) ;
#421 = CARTESIAN_POINT ( 'NONE',  ( 20.00000000000000000, -10.00000000000000000, -15.00000000000000000 ) ) ;
#422 = ORIENTED_EDGE ( 'NONE', *, *, #866, .F. ) ;
#423 = EDGE_CURVE ( 'NONE', #65, #891, #407, .T. ) ;
#424 = CARTESIAN_POINT ( 'NONE',  ( -13.00000000000000178, -19.50000000000000000, -7.500000000000000000 ) ) ;
#425 = DIRECTION ( 'NONE',  ( -0.000000000000000000, 0.000000000000000000, 1.000000000000000000 ) ) ;
#426 = VERTEX_POINT ( 'NONE', #754 ) ;
#427 = CARTESIAN_POINT ( 'NONE',  ( 13.00000000000002309, -19.50000000000000000, -6.999999999999999112 ) ) ;
#428 = VECTOR ( 'NONE', #510, 1000.000000000000000 ) ;
#429 = CIRCLE ( 'NONE', #275, 3.499999999999999556 ) ;
#430 = CARTESIAN_POINT ( 'NONE',  ( 6.000000000000000000, -30.00000000000000000, 0.000000000000000000 ) ) ;
#431 = DIRECTION ( 'NONE',  ( -0.000000000000000000, -0.000000000000000000, 1.000000000000000000 ) ) ;
#432 = EDGE_LOOP ( 'NONE', ( #757, #623, #119, #864 ) ) ;
#433 = CARTESIAN_POINT ( 'NONE',  ( -13.00000000000002132, -20.00000000000000000, 0.000000000000000000 ) ) ;
#434 = CARTESIAN_POINT ( 'NONE',  ( -30.00000000000000000, -20.00000000000000000, 0.000000000000000000 ) ) ;
#435 = DIRECTION ( 'NONE',  ( 0.000000000000000000, 1.000000000000000000, 0.000000000000000000 ) ) ;
#436 = CYLINDRICAL_SURFACE ( 'NONE', #690, 2.999999999999999112 ) ;
#437 = VERTEX_POINT ( 'NONE', #132 ) ;
#438 = CARTESIAN_POINT ( 'NONE',  ( 6.000000000000000000, 0.000000000000000000, 0.000000000000000000 ) ) ;
#439 = EDGE_CURVE ( 'NONE', #130, #617, #725, .T. ) ;
#440 = EDGE_CURVE ( 'NONE', #335, #181, #57, .T. ) ;
#441 = UNCERTAINTY_MEASURE_WITH_UNIT (LENGTH_MEASURE( 1.000000000000000082E-05 ), #811, 'distance_accuracy_value', 'NONE');
#442 = DIRECTION ( 'NONE',  ( -1.000000000000000000, 0.000000000000000000, 0.000000000000000000 ) ) ;
#443 = AXIS2_PLACEMENT_3D ( 'NONE', #505, #715, #23 ) ;
#444 = DIRECTION ( 'NONE',  ( -0.000000000000000000, -0.000000000000000000, 1.000000000000000000 ) ) ;
#445 = CARTESIAN_POINT ( 'NONE',  ( 30.00000000000000355, -19.50000000000000000, -6.999999999999999112 ) ) ;
#446 = AXIS2_PLACEMENT_3D ( 'NONE', #251, #182, #528 ) ;
#447 = DIRECTION ( 'NONE',  ( 0.000000000000000000, 0.000000000000000000, 1.000000000000000000 ) ) ;
#448 = EDGE_LOOP ( 'NONE', ( #592, #650, #177, #587 ) ) ;
#449 = AXIS2_PLACEMENT_3D ( 'NONE', #599, #113, #882 ) ;
#450 = CYLINDRICAL_SURFACE ( 'NONE', #334, 3.499999999999999556 ) ;
#451 = EDGE_CURVE ( 'NONE', #517, #833, #265, .T. ) ;
#452 = DIRECTION ( 'NONE',  ( -0.000000000000000000, -0.000000000000000000, -1.000000000000000000 ) ) ;
#453 = ORIENTED_EDGE ( 'NONE', *, *, #608, .F. ) ;
#454 = DIRECTION ( 'NONE',  ( -0.000000000000000000, -0.000000000000000000, 1.000000000000000000 ) ) ;
#455 = AXIS2_PLACEMENT_3D ( 'NONE', #732, #851, #656 ) ;
#456 = DIRECTION ( 'NONE',  ( 1.000000000000000000, 0.000000000000000000, 0.000000000000000000 ) ) ;
#457 = ORIENTED_EDGE ( 'NONE', *, *, #895, .F. ) ;
#458 = EDGE_CURVE ( 'NONE', #285, #437, #541, .T. ) ;
#459 = CARTESIAN_POINT ( 'NONE',  ( -20.00000000000000000, -10.00000000000027889, -15.00000000000000000 ) ) ;
#460 = VECTOR ( 'NONE', #402, 1000.000000000000000 ) ;
#461 = CYLINDRICAL_SURFACE ( 'NONE', #449, 0.5000000000000004441 ) ;
#462 = EDGE_LOOP ( 'NONE', ( #724, #155, #902, #596 ) ) ;
#463 = EDGE_LOOP ( 'NONE', ( #788, #830 ) ) ;
#464 = CARTESIAN_POINT ( 'NONE',  ( 13.00000000000000178, -17.00000000000000000, -6.999999999999999112 ) ) ;
#465 = ORIENTED_EDGE ( 'NONE', *, *, #609, .F. ) ;
#466 = CARTESIAN_POINT ( 'NONE',  ( 30.00000000000000000, 0.000000000000000000, -7.500000000000000000 ) ) ;
#467 = EDGE_CURVE ( 'NONE', #635, #61, #614, .T. ) ;
#468 = AXIS2_PLACEMENT_3D ( 'NONE', #727, #785, #350 ) ;
#469 = ORIENTED_EDGE ( 'NONE', *, *, #666, .T. ) ;
#470 = DIRECTION ( 'NONE',  ( -0.000000000000000000, -1.000000000000000000, -0.000000000000000000 ) ) ;
#471 = ORIENTED_EDGE ( 'NONE', *, *, #123, .F. ) ;
#472 = LINE ( 'NONE', #772, #343 ) ;
#473 = VECTOR ( 'NONE', #89, 1000.000000000000000 ) ;
#474 = ORIENTED_EDGE ( 'NONE', *, *, #256, .F. ) ;
#475 = CARTESIAN_POINT ( 'NONE',  ( -30.00000000000000000, 0.000000000000000000, -15.00000000000000000 ) ) ;
#476 = LINE ( 'NONE', #482, #900 ) ;
#477 = DIRECTION ( 'NONE',  ( -0.000000000000000000, -0.000000000000000000, 1.000000000000000000 ) ) ;
#478 = EDGE_LOOP ( 'NONE', ( #31, #398, #574, #755 ) ) ;
#479 = VECTOR ( 'NONE', #444, 1000.000000000000000 ) ;
#480 = EDGE_CURVE ( 'NONE', #681, #335, #397, .T. ) ;
#481 = ADVANCED_FACE ( 'NONE', ( #691 ), #673, .F. ) ;
#482 = CARTESIAN_POINT ( 'NONE',  ( -10.00000000000000000, -16.99999999999997868, 0.000000000000000000 ) ) ;
#483 = DIRECTION ( 'NONE',  ( 0.000000000000000000, 0.000000000000000000, -1.000000000000000000 ) ) ;
#484 = ORIENTED_EDGE ( 'NONE', *, *, #493, .T. ) ;
#485 = PLANE ( 'NONE',  #503 ) ;
#486 = ORIENTED_EDGE ( 'NONE', *, *, #555, .F. ) ;
#487 = DIRECTION ( 'NONE',  ( 1.000000000000000000, 1.156482317317871478E-16, -0.000000000000000000 ) ) ;
#488 = CARTESIAN_POINT ( 'NONE',  ( 30.00000000000000000, -20.00000000000000000, -7.500000000000000000 ) ) ;
#489 = VECTOR ( 'NONE', #807, 1000.000000000000000 ) ;
#490 = VERTEX_POINT ( 'NONE', #898 ) ;
#491 = DIRECTION ( 'NONE',  ( -1.156482317317871478E-16, -1.000000000000000000, 0.000000000000000000 ) ) ;
#492 = CARTESIAN_POINT ( 'NONE',  ( -16.50000000000000000, -10.00000000000027889, -7.500000000000000000 ) ) ;
#493 = EDGE_CURVE ( 'NONE', #781, #652, #893, .T. ) ;
#494 = ORIENTED_EDGE ( 'NONE', *, *, #226, .F. ) ;
#495 = DIRECTION ( 'NONE',  ( 1.000000000000000000, -0.000000000000000000, -0.000000000000000000 ) ) ;
#496 = STYLED_ITEM ( 'NONE', ( #332 ), #34 ) ;
#497 = CARTESIAN_POINT ( 'NONE',  ( 10.00000000000000000, 0.000000000000000000, -6.999999999999999112 ) ) ;
#498 =( GEOMETRIC_REPRESENTATION_CONTEXT ( 3 ) GLOBAL_UNCERTAINTY_ASSIGNED_CONTEXT ( ( #235 ) ) GLOBAL_UNIT_ASSIGNED_CONTEXT ( ( #826, #629, #615 ) ) REPRESENTATION_CONTEXT ( 'NONE', 'WORKASPACE' ) );
#499 = CARTESIAN_POINT ( 'NONE',  ( 10.00000000000000000, -16.99999999999997868, -7.500000000000000000 ) ) ;
#500 = ORIENTED_EDGE ( 'NONE', *, *, #268, .T. ) ;
#501 = PLANE ( 'NONE',  #654 ) ;
#502 = ORIENTED_EDGE ( 'NONE', *, *, #677, .F. ) ;
#503 = AXIS2_PLACEMENT_3D ( 'NONE', #705, #133, #2 ) ;
#504 = DIRECTION ( 'NONE',  ( -1.156482317317871478E-16, 1.000000000000000000, 0.000000000000000000 ) ) ;
#505 = CARTESIAN_POINT ( 'NONE',  ( -10.00000000000000000, -16.99999999999997868, -7.500000000000000000 ) ) ;
#506 = DIRECTION ( 'NONE',  ( -1.156482317317871478E-16, -1.000000000000000000, 0.000000000000000000 ) ) ;
#507 = VERTEX_POINT ( 'NONE', #270 ) ;
#508 = ADVANCED_FACE ( 'NONE', ( #199 ), #117, .F. ) ;
#509 = PRODUCT_DEFINITION ( 'BİLİNMEY', '', #840, #102 ) ;
#510 = DIRECTION ( 'NONE',  ( 0.000000000000000000, 1.000000000000000000, 0.000000000000000000 ) ) ;
#511 = DIRECTION ( 'NONE',  ( 0.000000000000000000, 0.000000000000000000, 1.000000000000000000 ) ) ;
#512 = CARTESIAN_POINT ( 'NONE',  ( -6.000000000000000000, -30.00000000000000000, 0.000000000000000000 ) ) ;
#513 = VERTEX_POINT ( 'NONE', #536 ) ;
#514 = VECTOR ( 'NONE', #370, 1000.000000000000000 ) ;
#515 = CARTESIAN_POINT ( 'NONE',  ( -30.00000000000000000, 0.000000000000000000, 0.000000000000000000 ) ) ;
#516 = CARTESIAN_POINT ( 'NONE',  ( -30.00000000000000355, -30.00000000000000000, 0.000000000000000000 ) ) ;
#517 = VERTEX_POINT ( 'NONE', #272 ) ;
#518 = VECTOR ( 'NONE', #784, 1000.000000000000000 ) ;
#519 = FACE_OUTER_BOUND ( 'NONE', #448, .T. ) ;
#520 = ORIENTED_EDGE ( 'NONE', *, *, #163, .F. ) ;
#521 = SHAPE_DEFINITION_REPRESENTATION ( #95, #630 ) ;
#522 = EDGE_CURVE ( 'NONE', #635, #507, #702, .T. ) ;
#523 = CARTESIAN_POINT ( 'NONE',  ( 16.50000000000000000, -10.00000000000000000, -15.00000000000000000 ) ) ;
#524 = VECTOR ( 'NONE', #386, 1000.000000000000000 ) ;
#525 = CARTESIAN_POINT ( 'NONE',  ( 16.50000000000000000, -10.00000000000000000, -7.500000000000000000 ) ) ;
#526 = ORIENTED_EDGE ( 'NONE', *, *, #367, .T. ) ;
#527 = AXIS2_PLACEMENT_3D ( 'NONE', #30, #253, #529 ) ;
#528 = DIRECTION ( 'NONE',  ( 1.000000000000000000, 0.000000000000000000, 0.000000000000000000 ) ) ;
#529 = DIRECTION ( 'NONE',  ( 1.000000000000000000, 0.000000000000000000, 0.000000000000000000 ) ) ;
#530 = ORIENTED_EDGE ( 'NONE', *, *, #440, .F. ) ;
#531 = DIRECTION ( 'NONE',  ( 0.000000000000000000, 0.000000000000000000, 1.000000000000000000 ) ) ;
#532 = VECTOR ( 'NONE', #855, 1000.000000000000000 ) ;
#533 = DIRECTION ( 'NONE',  ( -0.000000000000000000, 0.000000000000000000, -1.000000000000000000 ) ) ;
#534 = VERTEX_POINT ( 'NONE', #409 ) ;
#535 = FACE_OUTER_BOUND ( 'NONE', #676, .T. ) ;
#536 = CARTESIAN_POINT ( 'NONE',  ( -30.00000000000000355, -30.00000000000000000, 0.000000000000000000 ) ) ;
#537 = ORIENTED_EDGE ( 'NONE', *, *, #678, .T. ) ;
#538 = EDGE_CURVE ( 'NONE', #688, #540, #129, .T. ) ;
#539 = EDGE_CURVE ( 'NONE', #828, #316, #556, .T. ) ;
#540 = VERTEX_POINT ( 'NONE', #835 ) ;
#541 = LINE ( 'NONE', #684, #460 ) ;
#542 = ORIENTED_EDGE ( 'NONE', *, *, #480, .T. ) ;
#543 = DIRECTION ( 'NONE',  ( -1.000000000000000000, -0.000000000000000000, -0.000000000000000000 ) ) ;
#544 = ORIENTED_EDGE ( 'NONE', *, *, #658, .F. ) ;
#545 = CARTESIAN_POINT ( 'NONE',  ( -10.50000000000000000, 0.000000000000000000, -6.999999999999999112 ) ) ;
#546 = ORIENTED_EDGE ( 'NONE', *, *, #25, .T. ) ;
#547 = CARTESIAN_POINT ( 'NONE',  ( -23.50000000000000000, -10.00000000000027889, -15.00000000000000000 ) ) ;
#548 = EDGE_CURVE ( 'NONE', #61, #681, #208, .T. ) ;
#549 = ORIENTED_EDGE ( 'NONE', *, *, #25, .F. ) ;
#550 = VECTOR ( 'NONE', #483, 1000.000000000000000 ) ;
#551 = EDGE_LOOP ( 'NONE', ( #486, #562, #389, #819 ) ) ;
#552 = CARTESIAN_POINT ( 'NONE',  ( -30.00000000000000355, -30.00000000000000000, 0.000000000000000000 ) ) ;
#553 = ORIENTED_EDGE ( 'NONE', *, *, #564, .F. ) ;
#554 = DIRECTION ( 'NONE',  ( 0.000000000000000000, 0.000000000000000000, 1.000000000000000000 ) ) ;
#555 = EDGE_CURVE ( 'NONE', #65, #517, #472, .T. ) ;
#556 = LINE ( 'NONE', #547, #159 ) ;
#557 = EDGE_LOOP ( 'NONE', ( #422, #500, #530, #218, #264, #190, #854 ) ) ;
#558 = CIRCLE ( 'NONE', #590, 0.5000000000000004441 ) ;
#559 = LINE ( 'NONE', #404, #860 ) ;
#560 = CARTESIAN_POINT ( 'NONE',  ( -20.00000000000000000, -10.00000000000027889, -15.00000000000000000 ) ) ;
#561 = VECTOR ( 'NONE', #779, 1000.000000000000000 ) ;
#562 = ORIENTED_EDGE ( 'NONE', *, *, #423, .T. ) ;
#563 = DIRECTION ( 'NONE',  ( 0.000000000000000000, 0.000000000000000000, 1.000000000000000000 ) ) ;
#564 = EDGE_CURVE ( 'NONE', #320, #437, #429, .T. ) ;
#565 = DIRECTION ( 'NONE',  ( 1.000000000000000000, 0.000000000000000000, 0.000000000000000000 ) ) ;
#566 = AXIS2_PLACEMENT_3D ( 'NONE', #607, #531, #889 ) ;
#567 = ORIENTED_EDGE ( 'NONE', *, *, #413, .T. ) ;
#568 = EDGE_CURVE ( 'NONE', #114, #688, #201, .T. ) ;
#569 = CARTESIAN_POINT ( 'NONE',  ( -13.00000000000002132, -20.00000000000000000, 0.000000000000000000 ) ) ;
#570 = CIRCLE ( 'NONE', #527, 2.500000000000000444 ) ;
#571 = LINE ( 'NONE', #497, #686 ) ;
#572 = CARTESIAN_POINT ( 'NONE',  ( 10.00000000000000000, -16.99999999999997868, -6.999999999999999112 ) ) ;
#573 = PRODUCT ( 'block', 'block', '', ( #390 ) ) ;
#574 = ORIENTED_EDGE ( 'NONE', *, *, #467, .F. ) ;
#575 = CYLINDRICAL_SURFACE ( 'NONE', #179, 0.5000000000000004441 ) ;
#576 = VERTEX_POINT ( 'NONE', #68 ) ;
#577 = CARTESIAN_POINT ( 'NONE',  ( 10.50000000000000000, -16.99999999999997868, -7.500000000000000000 ) ) ;
#578 = VECTOR ( 'NONE', #796, 1000.000000000000000 ) ;
#579 = FACE_BOUND ( 'NONE', #463, .T. ) ;
#580 = LINE ( 'NONE', #231, #405 ) ;
#581 = ADVANCED_FACE ( 'NONE', ( #631 ), #760, .F. ) ;
#582 = ADVANCED_FACE ( 'NONE', ( #620, #827 ), #485, .T. ) ;
#583 = VECTOR ( 'NONE', #52, 1000.000000000000000 ) ;
#584 = DIRECTION ( 'NONE',  ( 1.000000000000000000, 0.000000000000000000, 0.000000000000000000 ) ) ;
#585 = FACE_OUTER_BOUND ( 'NONE', #249, .T. ) ;
#586 = CARTESIAN_POINT ( 'NONE',  ( -30.00000000000000355, -30.00000000000000000, -15.00000000000000000 ) ) ;
#587 = ORIENTED_EDGE ( 'NONE', *, *, #123, .T. ) ;
#588 = PLANE ( 'NONE',  #81 ) ;
#589 = CARTESIAN_POINT ( 'NONE',  ( -10.00000000000000000, 0.000000000000000000, 0.000000000000000000 ) ) ;
#590 = AXIS2_PLACEMENT_3D ( 'NONE', #353, #639, #511 ) ;
#591 = FACE_OUTER_BOUND ( 'NONE', #645, .T. ) ;
#592 = ORIENTED_EDGE ( 'NONE', *, *, #227, .F. ) ;
#593 = DIRECTION ( 'NONE',  ( 0.000000000000000000, 0.000000000000000000, 1.000000000000000000 ) ) ;
#594 = AXIS2_PLACEMENT_3D ( 'NONE', #421, #234, #150 ) ;
#595 = CARTESIAN_POINT ( 'NONE',  ( 6.000000000000000000, -30.00000000000000000, -5.000000000000000000 ) ) ;
#596 = ORIENTED_EDGE ( 'NONE', *, *, #403, .F. ) ;
#597 = DIRECTION ( 'NONE',  ( 1.000000000000000000, 0.000000000000000000, 0.000000000000000000 ) ) ;
#598 = DIRECTION ( 'NONE',  ( 1.000000000000000000, 0.000000000000000000, 0.000000000000000000 ) ) ;
#599 = CARTESIAN_POINT ( 'NONE',  ( 13.00000000000000178, -19.50000000000000000, -6.999999999999999112 ) ) ;
#600 = ORIENTED_EDGE ( 'NONE', *, *, #256, .T. ) ;
#601 = EDGE_CURVE ( 'NONE', #336, #285, #820, .T. ) ;
#602 = DIRECTION ( 'NONE',  ( 0.000000000000000000, 0.000000000000000000, 1.000000000000000000 ) ) ;
#603 = AXIS2_PLACEMENT_3D ( 'NONE', #872, #452, #886 ) ;
#604 = CARTESIAN_POINT ( 'NONE',  ( -30.00000000000000355, -30.00000000000000000, -15.00000000000000000 ) ) ;
#605 = PLANE ( 'NONE',  #59 ) ;
#606 = ORIENTED_EDGE ( 'NONE', *, *, #293, .F. ) ;
#607 = CARTESIAN_POINT ( 'NONE',  ( -13.00000000000000178, -17.00000000000000000, 0.000000000000000000 ) ) ;
#608 = EDGE_CURVE ( 'NONE', #891, #194, #72, .T. ) ;
#609 = EDGE_CURVE ( 'NONE', #626, #396, #559, .T. ) ;
#610 = CARTESIAN_POINT ( 'NONE',  ( 30.00000000000000000, -19.50000000000000000, -7.500000000000000000 ) ) ;
#611 = VERTEX_POINT ( 'NONE', #693 ) ;
#612 = ORIENTED_EDGE ( 'NONE', *, *, #37, .F. ) ;
#613 = CIRCLE ( 'NONE', #134, 0.5000000000000004441 ) ;
#614 = LINE ( 'NONE', #825, #69 ) ;
#615 =( NAMED_UNIT ( * ) SI_UNIT ( $, .STERADIAN. ) SOLID_ANGLE_UNIT ( ) );
#616 = DIRECTION ( 'NONE',  ( 0.000000000000000000, 0.000000000000000000, 1.000000000000000000 ) ) ;
#617 = VERTEX_POINT ( 'NONE', #901 ) ;
#618 = CARTESIAN_POINT ( 'NONE',  ( -13.00000000000000178, -17.00000000000000000, -6.999999999999999112 ) ) ;
#619 = VERTEX_POINT ( 'NONE', #341 ) ;
#620 = FACE_OUTER_BOUND ( 'NONE', #232, .T. ) ;
#621 = ADVANCED_FACE ( 'NONE', ( #349 ), #765, .F. ) ;
#622 = MECHANICAL_DESIGN_GEOMETRIC_PRESENTATION_REPRESENTATION (  '', ( #496 ), #498 ) ;
#623 = ORIENTED_EDGE ( 'NONE', *, *, #115, .F. ) ;
#624 = VECTOR ( 'NONE', #156, 1000.000000000000000 ) ;
#625 = CARTESIAN_POINT ( 'NONE',  ( 10.00000000000000000, -16.99999999999997868, -7.500000000000000000 ) ) ;
#626 = VERTEX_POINT ( 'NONE', #466 ) ;
#627 = VECTOR ( 'NONE', #477, 1000.000000000000000 ) ;
#628 = EDGE_CURVE ( 'NONE', #576, #507, #333, .T. ) ;
#629 =( NAMED_UNIT ( * ) PLANE_ANGLE_UNIT ( ) SI_UNIT ( $, .RADIAN. ) );
#630 = ADVANCED_BREP_SHAPE_REPRESENTATION ( 'block', ( #34, #327 ), #713 ) ;
#631 = FACE_OUTER_BOUND ( 'NONE', #844, .T. ) ;
#632 = ORIENTED_EDGE ( 'NONE', *, *, #906, .T. ) ;
#633 = CARTESIAN_POINT ( 'NONE',  ( -30.00000000000000000, 0.000000000000000000, 0.000000000000000000 ) ) ;
#634 = CARTESIAN_POINT ( 'NONE',  ( 10.00000000000000000, -16.99999999999997868, 0.000000000000000000 ) ) ;
#635 = VERTEX_POINT ( 'NONE', #412 ) ;
#636 = CIRCLE ( 'NONE', #730, 3.499999999999999556 ) ;
#637 = EDGE_CURVE ( 'NONE', #681, #200, #909, .T. ) ;
#638 = CARTESIAN_POINT ( 'NONE',  ( -30.00000000000000000, 0.000000000000000000, -15.00000000000000000 ) ) ;
#639 = DIRECTION ( 'NONE',  ( -0.000000000000000000, -1.000000000000000000, -0.000000000000000000 ) ) ;
#640 = AXIS2_PLACEMENT_3D ( 'NONE', #365, #288, #649 ) ;
#641 = ORIENTED_EDGE ( 'NONE', *, *, #609, .T. ) ;
#642 = DIRECTION ( 'NONE',  ( -1.000000000000000000, -1.156482317317871478E-16, 0.000000000000000000 ) ) ;
#643 = CARTESIAN_POINT ( 'NONE',  ( -10.00000000000000000, 0.000000000000000000, -7.500000000000000000 ) ) ;
#644 = CARTESIAN_POINT ( 'NONE',  ( -30.00000000000000000, -20.00000000000000000, -7.500000000000000000 ) ) ;
#645 = EDGE_LOOP ( 'NONE', ( #641, #797, #160, #484, #151 ) ) ;
#646 = DIRECTION ( 'NONE',  ( 0.000000000000000000, 1.000000000000000000, 0.000000000000000000 ) ) ;
#647 = DIRECTION ( 'NONE',  ( 0.000000000000000000, 0.000000000000000000, -1.000000000000000000 ) ) ;
#648 = EDGE_CURVE ( 'NONE', #61, #626, #267, .T. ) ;
#649 = DIRECTION ( 'NONE',  ( 1.000000000000000000, 0.000000000000000000, 0.000000000000000000 ) ) ;
#650 = ORIENTED_EDGE ( 'NONE', *, *, #322, .F. ) ;
#651 = LINE ( 'NONE', #19, #578 ) ;
#652 = VERTEX_POINT ( 'NONE', #846 ) ;
#653 = CARTESIAN_POINT ( 'NONE',  ( -10.00000000000000000, -16.99999999999997868, -7.500000000000000000 ) ) ;
#654 = AXIS2_PLACEMENT_3D ( 'NONE', #512, #24, #161 ) ;
#655 = DIRECTION ( 'NONE',  ( -6.938893903907222067E-15, -1.000000000000000000, 0.000000000000000000 ) ) ;
#656 = DIRECTION ( 'NONE',  ( 0.000000000000000000, 0.000000000000000000, -1.000000000000000000 ) ) ;
#657 = ORIENTED_EDGE ( 'NONE', *, *, #748, .F. ) ;
#658 = EDGE_CURVE ( 'NONE', #490, #130, #12, .T. ) ;
#659 = CARTESIAN_POINT ( 'NONE',  ( -13.00000000000002132, -20.00000000000000000, -7.500000000000000000 ) ) ;
#660 = CARTESIAN_POINT ( 'NONE',  ( -10.50000000000000000, -17.00000000000000000, -6.999999999999999112 ) ) ;
#661 = ORIENTED_EDGE ( 'NONE', *, *, #124, .F. ) ;
#662 = FACE_OUTER_BOUND ( 'NONE', #786, .T. ) ;
#663 = EDGE_LOOP ( 'NONE', ( #307, #203, #273, #45 ) ) ;
#664 = CARTESIAN_POINT ( 'NONE',  ( -10.00000000000000000, 0.000000000000000000, -7.500000000000000000 ) ) ;
#665 = COLOUR_RGB ( '',0.7921568627450980005, 0.8196078431372548767, 0.9333333333333333481 ) ;
#666 = EDGE_CURVE ( 'NONE', #576, #348, #287, .T. ) ;
#667 = CARTESIAN_POINT ( 'NONE',  ( -30.00000000000000000, 0.000000000000000000, -7.500000000000000000 ) ) ;
#668 = VERTEX_POINT ( 'NONE', #434 ) ;
#669 = EDGE_CURVE ( 'NONE', #534, #289, #726, .T. ) ;
#670 = DIRECTION ( 'NONE',  ( 1.000000000000000000, 0.000000000000000000, 0.000000000000000000 ) ) ;
#671 = FACE_OUTER_BOUND ( 'NONE', #301, .T. ) ;
#672 = VERTEX_POINT ( 'NONE', #291 ) ;
#673 = TOROIDAL_SURFACE ( 'NONE', #183, 2.500000000000000000, 0.5000000000000000000 ) ;
#674 = CARTESIAN_POINT ( 'NONE',  ( -10.00000000000000000, -16.99999999999997868, -6.999999999999999112 ) ) ;
#675 = DIRECTION ( 'NONE',  ( 1.000000000000000000, 0.000000000000000000, 0.000000000000000000 ) ) ;
#676 = EDGE_LOOP ( 'NONE', ( #718, #140, #330, #502 ) ) ;
#677 = EDGE_CURVE ( 'NONE', #396, #408, #220, .T. ) ;
#678 = EDGE_CURVE ( 'NONE', #617, #93, #157, .T. ) ;
#679 = CARTESIAN_POINT ( 'NONE',  ( 10.50000000000000000, -17.00000000000000000, -6.999999999999999112 ) ) ;
#680 = CARTESIAN_POINT ( 'NONE',  ( 20.00000000000000000, -10.00000000000000000, -15.00000000000000000 ) ) ;
#681 = VERTEX_POINT ( 'NONE', #228 ) ;
#682 = AXIS2_PLACEMENT_3D ( 'NONE', #780, #298, #853 ) ;
#683 = ORIENTED_EDGE ( 'NONE', *, *, #748, .T. ) ;
#684 = CARTESIAN_POINT ( 'NONE',  ( 23.50000000000000000, -10.00000000000000000, -15.00000000000000000 ) ) ;
#685 = EDGE_LOOP ( 'NONE', ( #109, #739, #520, #237 ) ) ;
#686 = VECTOR ( 'NONE', #88, 1000.000000000000000 ) ;
#687 = DIRECTION ( 'NONE',  ( 0.000000000000000000, -0.000000000000000000, -1.000000000000000000 ) ) ;
#688 = VERTEX_POINT ( 'NONE', #438 ) ;
#689 = EDGE_CURVE ( 'NONE', #611, #74, #710, .T. ) ;
#690 = AXIS2_PLACEMENT_3D ( 'NONE', #99, #372, #306 ) ;
#691 = FACE_OUTER_BOUND ( 'NONE', #722, .T. ) ;
#692 = PLANE ( 'NONE',  #64 ) ;
#693 = CARTESIAN_POINT ( 'NONE',  ( -13.00000000000002132, -20.00000000000000000, -6.999999999999999112 ) ) ;
#694 = VECTOR ( 'NONE', #803, 1000.000000000000000 ) ;
#695 = ORIENTED_EDGE ( 'NONE', *, *, #658, .T. ) ;
#696 = EDGE_LOOP ( 'NONE', ( #657, #344, #225, #90 ) ) ;
#697 = CARTESIAN_POINT ( 'NONE',  ( 13.00000000000002132, -20.00000000000000000, -7.500000000000000000 ) ) ;
#698 = EDGE_CURVE ( 'NONE', #891, #672, #571, .T. ) ;
#699 = EDGE_LOOP ( 'NONE', ( #295, #269, #474, #148 ) ) ;
#700 = CIRCLE ( 'NONE', #411, 3.499999999999999556 ) ;
#701 = ORIENTED_EDGE ( 'NONE', *, *, #268, .F. ) ;
#702 = LINE ( 'NONE', #146, #230 ) ;
#703 = ORIENTED_EDGE ( 'NONE', *, *, #905, .F. ) ;
#704 = VECTOR ( 'NONE', #331, 1000.000000000000000 ) ;
#705 = CARTESIAN_POINT ( 'NONE',  ( -13.00000000000000178, -17.00000000000000000, -7.500000000000000000 ) ) ;
#706 = DIRECTION ( 'NONE',  ( 0.000000000000000000, 0.000000000000000000, 1.000000000000000000 ) ) ;
#707 = ADVANCED_FACE ( 'NONE', ( #369 ), #80, .F. ) ;
#708 = EDGE_CURVE ( 'NONE', #619, #883, #164, .T. ) ;
#709 = ORIENTED_EDGE ( 'NONE', *, *, #865, .T. ) ;
#710 = LINE ( 'NONE', #659, #759 ) ;
#711 = CARTESIAN_POINT ( 'NONE',  ( -13.00000000000001776, -19.50000000000000000, -6.999999999999999112 ) ) ;
#712 = ORIENTED_EDGE ( 'NONE', *, *, #719, .T. ) ;
#713 =( GEOMETRIC_REPRESENTATION_CONTEXT ( 3 ) GLOBAL_UNCERTAINTY_ASSIGNED_CONTEXT ( ( #441 ) ) GLOBAL_UNIT_ASSIGNED_CONTEXT ( ( #811, #805, #32 ) ) REPRESENTATION_CONTEXT ( 'NONE', 'WORKASPACE' ) );
#714 = DIRECTION ( 'NONE',  ( 0.000000000000000000, -1.000000000000000000, 0.000000000000000000 ) ) ;
#715 = DIRECTION ( 'NONE',  ( 1.000000000000000000, -0.000000000000000000, 0.000000000000000000 ) ) ;
#716 = ORIENTED_EDGE ( 'NONE', *, *, #346, .F. ) ;
#717 = DIRECTION ( 'NONE',  ( -6.938893903907222067E-15, 0.000000000000000000, -1.000000000000000000 ) ) ;
#718 = ORIENTED_EDGE ( 'NONE', *, *, #821, .F. ) ;
#719 = EDGE_CURVE ( 'NONE', #611, #419, #210, .T. ) ;
#720 = DIRECTION ( 'NONE',  ( -0.000000000000000000, -0.000000000000000000, 1.000000000000000000 ) ) ;
#721 = DIRECTION ( 'NONE',  ( 0.000000000000000000, 0.000000000000000000, 1.000000000000000000 ) ) ;
#722 = EDGE_LOOP ( 'NONE', ( #361, #271, #5, #849 ) ) ;
#723 = LINE ( 'NONE', #92, #258 ) ;
#724 = ORIENTED_EDGE ( 'NONE', *, *, #878, .F. ) ;
#725 = CIRCLE ( 'NONE', #15, 0.5000000000000004441 ) ;
#726 = LINE ( 'NONE', #795, #245 ) ;
#727 = CARTESIAN_POINT ( 'NONE',  ( 0.000000000000000000, -30.00000000000000000, -5.000000000000000000 ) ) ;
#728 = DIRECTION ( 'NONE',  ( 1.000000000000000000, 0.000000000000000000, 0.000000000000000000 ) ) ;
#729 = ORIENTED_EDGE ( 'NONE', *, *, #413, .F. ) ;
#730 = AXIS2_PLACEMENT_3D ( 'NONE', #560, #294, #843 ) ;
#731 = DIRECTION ( 'NONE',  ( 0.000000000000000000, 0.000000000000000000, 1.000000000000000000 ) ) ;
#732 = CARTESIAN_POINT ( 'NONE',  ( -10.50000000000000000, -16.99999999999997868, -6.999999999999999112 ) ) ;
#733 = ORIENTED_EDGE ( 'NONE', *, *, #467, .T. ) ;
#734 = CARTESIAN_POINT ( 'NONE',  ( -30.00000000000000000, -20.00000000000000000, -6.999999999999999112 ) ) ;
#735 = FACE_OUTER_BOUND ( 'NONE', #351, .T. ) ;
#736 = ADVANCED_FACE ( 'NONE', ( #303 ), #27, .F. ) ;
#737 = AXIS2_PLACEMENT_3D ( 'NONE', #41, #809, #248 ) ;
#738 = CARTESIAN_POINT ( 'NONE',  ( 10.50000000000000000, 0.000000000000000000, -7.500000000000000000 ) ) ;
#739 = ORIENTED_EDGE ( 'NONE', *, *, #347, .F. ) ;
#740 = CARTESIAN_POINT ( 'NONE',  ( 13.00000000000002309, -20.00000000000000000, -6.999999999999999112 ) ) ;
#741 = CARTESIAN_POINT ( 'NONE',  ( -16.50000000000000000, -10.00000000000027889, -15.00000000000000000 ) ) ;
#742 = ORIENTED_EDGE ( 'NONE', *, *, #564, .T. ) ;
#743 = CIRCLE ( 'NONE', #455, 0.5000000000000004441 ) ;
#744 = PLANE ( 'NONE',  #55 ) ;
#745 = DIRECTION ( 'NONE',  ( 1.000000000000000000, 0.000000000000000000, 0.000000000000000000 ) ) ;
#746 = VERTEX_POINT ( 'NONE', #308 ) ;
#747 = ADVANCED_FACE ( 'NONE', ( #17 ), #588, .T. ) ;
#748 = EDGE_CURVE ( 'NONE', #254, #753, #790, .T. ) ;
#749 = VECTOR ( 'NONE', #543, 1000.000000000000000 ) ;
#750 = DIRECTION ( 'NONE',  ( 0.000000000000000000, -0.000000000000000000, -1.000000000000000000 ) ) ;
#751 = DIRECTION ( 'NONE',  ( -1.000000000000000000, 0.000000000000000000, 0.000000000000000000 ) ) ;
#752 = ORIENTED_EDGE ( 'NONE', *, *, #186, .T. ) ;
#753 = VERTEX_POINT ( 'NONE', #22 ) ;
#754 = CARTESIAN_POINT ( 'NONE',  ( -13.00000000000001776, -19.50000000000000000, -7.500000000000000000 ) ) ;
#755 = ORIENTED_EDGE ( 'NONE', *, *, #97, .F. ) ;
#756 = DIRECTION ( 'NONE',  ( 1.000000000000000000, 0.000000000000000000, 0.000000000000000000 ) ) ;
#757 = ORIENTED_EDGE ( 'NONE', *, *, #538, .T. ) ;
#758 = DIRECTION ( 'NONE',  ( 1.000000000000000000, 0.000000000000000000, 0.000000000000000000 ) ) ;
#759 = VECTOR ( 'NONE', #720, 1000.000000000000000 ) ;
#760 = PLANE ( 'NONE',  #789 ) ;
#761 = ORIENTED_EDGE ( 'NONE', *, *, #227, .T. ) ;
#762 = AXIS2_PLACEMENT_3D ( 'NONE', #379, #324, #176 ) ;
#763 = CARTESIAN_POINT ( 'NONE',  ( 30.00000000000000000, 0.000000000000000000, -15.00000000000000000 ) ) ;
#764 = EDGE_CURVE ( 'NONE', #652, #626, #149, .T. ) ;
#765 = PLANE ( 'NONE',  #416 ) ;
#766 = CIRCLE ( 'NONE', #91, 3.499999999999999556 ) ;
#767 = EDGE_LOOP ( 'NONE', ( #471, #553 ) ) ;
#768 = SURFACE_STYLE_FILL_AREA ( #838 ) ;
#769 = CARTESIAN_POINT ( 'NONE',  ( 20.00000000000000000, -10.00000000000000000, -15.00000000000000000 ) ) ;
#770 = ORIENTED_EDGE ( 'NONE', *, *, #247, .F. ) ;
#771 = CIRCLE ( 'NONE', #371, 0.5000000000000004441 ) ;
#772 = CARTESIAN_POINT ( 'NONE',  ( 13.00000000000002309, -20.00000000000000000, -7.500000000000000000 ) ) ;
#773 = ADVANCED_FACE ( 'NONE', ( #75 ), #352, .T. ) ;
#774 = EDGE_CURVE ( 'NONE', #181, #426, #152, .T. ) ;
#775 = EDGE_LOOP ( 'NONE', ( #49, #213, #778, #859, #612, #457, #380 ) ) ;
#776 = DIRECTION ( 'NONE',  ( -0.000000000000000000, -0.000000000000000000, 1.000000000000000000 ) ) ;
#777 = CYLINDRICAL_SURFACE ( 'NONE', #594, 3.499999999999999556 ) ;
#778 = ORIENTED_EDGE ( 'NONE', *, *, #247, .T. ) ;
#779 = DIRECTION ( 'NONE',  ( -1.000000000000000000, -0.000000000000000000, -0.000000000000000000 ) ) ;
#780 = CARTESIAN_POINT ( 'NONE',  ( 6.000000000000000000, -30.00000000000000000, 0.000000000000000000 ) ) ;
#781 = VERTEX_POINT ( 'NONE', #217 ) ;
#782 = DIRECTION ( 'NONE',  ( 0.000000000000000000, -0.000000000000000000, 1.000000000000000000 ) ) ;
#783 = EDGE_CURVE ( 'NONE', #316, #804, #831, .T. ) ;
#784 = DIRECTION ( 'NONE',  ( 0.000000000000000000, 0.000000000000000000, -1.000000000000000000 ) ) ;
#785 = DIRECTION ( 'NONE',  ( 0.000000000000000000, 1.000000000000000000, 0.000000000000000000 ) ) ;
#786 = EDGE_LOOP ( 'NONE', ( #29, #342, #278, #84 ) ) ;
#787 = LINE ( 'NONE', #516, #143 ) ;
#788 = ORIENTED_EDGE ( 'NONE', *, *, #905, .T. ) ;
#789 = AXIS2_PLACEMENT_3D ( 'NONE', #60, #338, #205 ) ;
#790 = LINE ( 'NONE', #653, #131 ) ;
#791 = ADVANCED_FACE ( 'NONE', ( #147 ), #777, .F. ) ;
#792 = FACE_OUTER_BOUND ( 'NONE', #478, .T. ) ;
#793 = CARTESIAN_POINT ( 'NONE',  ( 10.00000000000000000, -16.99999999999997868, 0.000000000000000000 ) ) ;
#794 = ORIENTED_EDGE ( 'NONE', *, *, #698, .T. ) ;
#795 = CARTESIAN_POINT ( 'NONE',  ( -6.000000000000000000, -30.00000000000000000, 0.000000000000000000 ) ) ;
#796 = DIRECTION ( 'NONE',  ( -0.000000000000000000, 1.000000000000000000, -0.000000000000000000 ) ) ;
#797 = ORIENTED_EDGE ( 'NONE', *, *, #677, .T. ) ;
#798 = CIRCLE ( 'NONE', #192, 3.499999999999999556 ) ;
#799 = LINE ( 'NONE', #170, #479 ) ;
#800 = ADVANCED_FACE ( 'NONE', ( #848 ), #212, .F. ) ;
#801 = DIRECTION ( 'NONE',  ( 0.000000000000000000, 6.938893903907222067E-15, -1.000000000000000000 ) ) ;
#802 = VECTOR ( 'NONE', #563, 1000.000000000000000 ) ;
#803 = DIRECTION ( 'NONE',  ( -1.000000000000000000, -0.000000000000000000, -0.000000000000000000 ) ) ;
#804 = VERTEX_POINT ( 'NONE', #492 ) ;
#805 =( NAMED_UNIT ( * ) PLANE_ANGLE_UNIT ( ) SI_UNIT ( $, .RADIAN. ) );
#806 = AXIS2_PLACEMENT_3D ( 'NONE', #445, #642, #10 ) ;
#807 = DIRECTION ( 'NONE',  ( -1.156482317317871478E-16, 1.000000000000000000, -0.000000000000000000 ) ) ;
#808 = AXIS2_PLACEMENT_3D ( 'NONE', #104, #172, #184 ) ;
#809 = DIRECTION ( 'NONE',  ( 0.000000000000000000, 0.000000000000000000, 1.000000000000000000 ) ) ;
#810 = ORIENTED_EDGE ( 'NONE', *, *, #79, .F. ) ;
#811 =( LENGTH_UNIT ( ) NAMED_UNIT ( * ) SI_UNIT ( .MILLI., .METRE. ) );
#812 = DIRECTION ( 'NONE',  ( -0.000000000000000000, -0.000000000000000000, 1.000000000000000000 ) ) ;
#813 = EDGE_CURVE ( 'NONE', #426, #611, #286, .T. ) ;
#814 = EDGE_CURVE ( 'NONE', #348, #619, #47, .T. ) ;
#815 = CYLINDRICAL_SURFACE ( 'NONE', #216, 3.499999999999999556 ) ;
#816 = ORIENTED_EDGE ( 'NONE', *, *, #783, .T. ) ;
#817 = DIRECTION ( 'NONE',  ( 0.000000000000000000, 0.000000000000000000, 1.000000000000000000 ) ) ;
#818 = CYLINDRICAL_SURFACE ( 'NONE', #762, 6.000000000000000000 ) ;
#819 = ORIENTED_EDGE ( 'NONE', *, *, #37, .T. ) ;
#820 = CIRCLE ( 'NONE', #387, 3.499999999999999556 ) ;
#821 = EDGE_CURVE ( 'NONE', #672, #396, #558, .T. ) ;
#822 = CARTESIAN_POINT ( 'NONE',  ( -30.00000000000000000, -20.00000000000000000, -7.500000000000000000 ) ) ;
#823 = ORIENTED_EDGE ( 'NONE', *, *, #458, .F. ) ;
#824 = ORIENTED_EDGE ( 'NONE', *, *, #439, .T. ) ;
#825 = CARTESIAN_POINT ( 'NONE',  ( 30.00000000000000000, 0.000000000000000000, -15.00000000000000000 ) ) ;
#826 =( LENGTH_UNIT ( ) NAMED_UNIT ( * ) SI_UNIT ( .MILLI., .METRE. ) );
#827 = FACE_BOUND ( 'NONE', #122, .T. ) ;
#828 = VERTEX_POINT ( 'NONE', #18 ) ;
#829 = DIRECTION ( 'NONE',  ( -0.000000000000000000, -1.000000000000000000, -0.000000000000000000 ) ) ;
#830 = ORIENTED_EDGE ( 'NONE', *, *, #878, .T. ) ;
#831 = CIRCLE ( 'NONE', #640, 3.499999999999999556 ) ;
#832 = CARTESIAN_POINT ( 'NONE',  ( -30.00000000000000000, 0.000000000000000000, -15.00000000000000000 ) ) ;
#833 = VERTEX_POINT ( 'NONE', #857 ) ;
#834 = EDGE_LOOP ( 'NONE', ( #897, #325 ) ) ;
#835 = CARTESIAN_POINT ( 'NONE',  ( 6.000000000000000000, 0.000000000000000000, -5.000000000000000000 ) ) ;
#836 = ORIENTED_EDGE ( 'NONE', *, *, #814, .F. ) ;
#837 = ADVANCED_FACE ( 'NONE', ( #4 ), #8, .F. ) ;
#838 = FILL_AREA_STYLE ('',( #53 ) ) ;
#839 = DIRECTION ( 'NONE',  ( -0.000000000000000000, -0.000000000000000000, -1.000000000000000000 ) ) ;
#840 = PRODUCT_DEFINITION_FORMATION_WITH_SPECIFIED_SOURCE ( 'HERHANG�', '', #573, .NOT_KNOWN. ) ;
#841 = ORIENTED_EDGE ( 'NONE', *, *, #895, .T. ) ;
#842 = DIRECTION ( 'NONE',  ( -1.000000000000000000, -0.000000000000000000, -0.000000000000000000 ) ) ;
#843 = DIRECTION ( 'NONE',  ( 1.000000000000000000, 0.000000000000000000, 0.000000000000000000 ) ) ;
#844 = EDGE_LOOP ( 'NONE', ( #185, #712, #42, #887 ) ) ;
#845 = VECTOR ( 'NONE', #261, 1000.000000000000000 ) ;
#846 = CARTESIAN_POINT ( 'NONE',  ( 30.00000000000000000, -19.50000000000000000, -7.500000000000000000 ) ) ;
#847 = ADVANCED_FACE ( 'NONE', ( #579, #229, #792 ), #221, .F. ) ;
#848 = FACE_OUTER_BOUND ( 'NONE', #125, .T. ) ;
#849 = ORIENTED_EDGE ( 'NONE', *, *, #367, .F. ) ;
#850 = CIRCLE ( 'NONE', #603, 2.999999999999999112 ) ;
#851 = DIRECTION ( 'NONE',  ( 0.000000000000000000, -1.000000000000000000, 0.000000000000000000 ) ) ;
#852 = CARTESIAN_POINT ( 'NONE',  ( -6.000000000000000000, -30.00000000000000000, -5.000000000000000888 ) ) ;
#853 = DIRECTION ( 'NONE',  ( 0.000000000000000000, 0.000000000000000000, -1.000000000000000000 ) ) ;
#854 = ORIENTED_EDGE ( 'NONE', *, *, #186, .F. ) ;
#855 = DIRECTION ( 'NONE',  ( 0.000000000000000000, 0.000000000000000000, 1.000000000000000000 ) ) ;
#856 = CARTESIAN_POINT ( 'NONE',  ( 30.00000000000000000, 0.000000000000000000, -15.00000000000000000 ) ) ;
#857 = CARTESIAN_POINT ( 'NONE',  ( 30.00000000000000000, -20.00000000000000000, 0.000000000000000000 ) ) ;
#858 = DIRECTION ( 'NONE',  ( 0.000000000000000000, 1.000000000000000000, -0.000000000000000000 ) ) ;
#859 = ORIENTED_EDGE ( 'NONE', *, *, #451, .F. ) ;
#860 = VECTOR ( 'NONE', #842, 1000.000000000000000 ) ;
#861 = CARTESIAN_POINT ( 'NONE',  ( 30.00000000000000000, 0.000000000000000000, -15.00000000000000000 ) ) ;
#862 = DIRECTION ( 'NONE',  ( 0.000000000000000000, 0.000000000000000000, 1.000000000000000000 ) ) ;
#863 = DIRECTION ( 'NONE',  ( 1.000000000000000000, 0.000000000000000000, 0.000000000000000000 ) ) ;
#864 = ORIENTED_EDGE ( 'NONE', *, *, #162, .T. ) ;
#865 = EDGE_CURVE ( 'NONE', #540, #883, #395, .T. ) ;
#866 = EDGE_CURVE ( 'NONE', #419, #668, #98, .T. ) ;
#867 = DIRECTION ( 'NONE',  ( -0.000000000000000000, -0.000000000000000000, -1.000000000000000000 ) ) ;
#868 = APPLICATION_PROTOCOL_DEFINITION ( 'draft international standard', 'automotive_design', 1998, #67 ) ;
#869 = CARTESIAN_POINT ( 'NONE',  ( -30.00000000000000355, -30.00000000000000000, -15.00000000000000000 ) ) ;
#870 = EDGE_LOOP ( 'NONE', ( #173, #567, #549, #606, #810, #752, #894 ) ) ;
#871 = VECTOR ( 'NONE', #284, 1000.000000000000000 ) ;
#872 = CARTESIAN_POINT ( 'NONE',  ( -13.00000000000000178, -17.00000000000000000, -6.999999999999999112 ) ) ;
#873 = ORIENTED_EDGE ( 'NONE', *, *, #71, .T. ) ;
#874 = LINE ( 'NONE', #740, #845 ) ;
#875 = VECTOR ( 'NONE', #714, 1000.000000000000000 ) ;
#876 = DIRECTION ( 'NONE',  ( -1.000000000000000000, 0.000000000000000000, 0.000000000000000000 ) ) ;
#877 = ORIENTED_EDGE ( 'NONE', *, *, #97, .T. ) ;
#878 = EDGE_CURVE ( 'NONE', #828, #339, #798, .T. ) ;
#879 = AXIS2_PLACEMENT_3D ( 'NONE', #120, #812, #598 ) ;
#880 = PLANE ( 'NONE',  #446 ) ;
#881 = CIRCLE ( 'NONE', #808, 2.500000000000000444 ) ;
#882 = DIRECTION ( 'NONE',  ( 0.000000000000000000, 0.000000000000000000, 1.000000000000000000 ) ) ;
#883 = VERTEX_POINT ( 'NONE', #418 ) ;
#884 = CARTESIAN_POINT ( 'NONE',  ( 23.50000000000000000, -10.00000000000000000, -15.00000000000000000 ) ) ;
#885 = ADVANCED_FACE ( 'NONE', ( #585 ), #358, .F. ) ;
#886 = DIRECTION ( 'NONE',  ( 1.000000000000000000, 0.000000000000000000, 0.000000000000000000 ) ) ;
#887 = ORIENTED_EDGE ( 'NONE', *, *, #79, .T. ) ;
#888 = CARTESIAN_POINT ( 'NONE',  ( 0.000000000000000000, 0.000000000000000000, 0.000000000000000000 ) ) ;
#889 = DIRECTION ( 'NONE',  ( 1.000000000000000000, 0.000000000000000000, 0.000000000000000000 ) ) ;
#890 = DIRECTION ( 'NONE',  ( 0.000000000000000000, 0.000000000000000000, 1.000000000000000000 ) ) ;
#891 = VERTEX_POINT ( 'NONE', #572 ) ;
#892 = ORIENTED_EDGE ( 'NONE', *, *, #764, .F. ) ;
#893 = LINE ( 'NONE', #610, #704 ) ;
#894 = ORIENTED_EDGE ( 'NONE', *, *, #136, .T. ) ;
#895 = EDGE_CURVE ( 'NONE', #114, #194, #73, .T. ) ;
#896 = CARTESIAN_POINT ( 'NONE',  ( -30.00000000000000000, 0.000000000000000000, -15.00000000000000000 ) ) ;
#897 = ORIENTED_EDGE ( 'NONE', *, *, #322, .T. ) ;
#898 = CARTESIAN_POINT ( 'NONE',  ( -10.50000000000000000, -16.99999999999997868, -7.500000000000000000 ) ) ;
#899 = ORIENTED_EDGE ( 'NONE', *, *, #439, .F. ) ;
#900 = VECTOR ( 'NONE', #276, 1000.000000000000000 ) ;
#901 = CARTESIAN_POINT ( 'NONE',  ( -10.00000000000000000, 0.000000000000000000, -6.999999999999999112 ) ) ;
#902 = ORIENTED_EDGE ( 'NONE', *, *, #385, .F. ) ;
#903 = DIRECTION ( 'NONE',  ( 0.000000000000000000, -1.000000000000000000, 0.000000000000000000 ) ) ;
#904 = VECTOR ( 'NONE', #277, 1000.000000000000000 ) ;
#905 = EDGE_CURVE ( 'NONE', #339, #828, #636, .T. ) ;
#906 = EDGE_CURVE ( 'NONE', #746, #833, #158, .T. ) ;
#907 = EDGE_LOOP ( 'NONE', ( #384, #761, #742, #823 ) ) ;
#908 = CARTESIAN_POINT ( 'NONE',  ( 13.00000000000000178, -17.00000000000000000, 0.000000000000000000 ) ) ;
#909 = LINE ( 'NONE', #896, #40 ) ;
ENDSEC;
END-ISO-10303-21;
